<svg xmlns="http://www.w3.org/2000/svg" width="290" height="39" fill="none"><path fill="url(#a)" d="M10.518 12.363V15H2.939v-2.637h7.579ZM4.16.781V15H.732V.781H4.16Zm5.381 5.645v2.549H2.939v-2.55h6.602ZM10.547.78v2.647H2.939V.78h7.608Zm6.758 11.25a.657.657 0 0 0-.186-.469c-.117-.136-.325-.26-.625-.37-.3-.118-.72-.235-1.26-.352-.514-.11-.999-.257-1.455-.44a5.024 5.024 0 0 1-1.181-.664 2.938 2.938 0 0 1-.801-.927 2.599 2.599 0 0 1-.283-1.23c0-.45.094-.873.283-1.27.195-.404.478-.759.85-1.065a4.144 4.144 0 0 1 1.376-.732c.54-.183 1.156-.274 1.846-.274.95 0 1.771.147 2.461.44.69.286 1.22.69 1.592 1.21.377.515.566 1.11.566 1.788h-3.29a1.56 1.56 0 0 0-.137-.684.869.869 0 0 0-.42-.43c-.196-.104-.456-.156-.782-.156a1.51 1.51 0 0 0-.625.127 1.122 1.122 0 0 0-.44.352.863.863 0 0 0-.165.527.79.79 0 0 0 .098.39c.071.111.179.216.322.313.143.091.325.176.547.254.221.072.488.137.8.195.71.13 1.374.316 1.993.557.618.241 1.12.583 1.504 1.025.39.443.585 1.039.585 1.788 0 .468-.107.901-.322 1.298-.215.391-.524.736-.927 1.036-.404.292-.89.52-1.456.683a6.932 6.932 0 0 1-1.914.244c-1.009 0-1.862-.179-2.558-.537-.697-.364-1.224-.82-1.582-1.367-.352-.553-.528-1.113-.528-1.68h3.067c.013.326.091.593.234.801.15.208.348.361.596.46.247.097.534.146.86.146.299 0 .546-.043.741-.127.202-.085.355-.199.46-.342a.884.884 0 0 0 .156-.518Zm9.18.625c.305 0 .566-.055.78-.166.222-.117.388-.28.499-.488.117-.215.172-.472.166-.772h3.095c.007.795-.188 1.491-.585 2.09a3.963 3.963 0 0 1-1.602 1.387c-.67.326-1.43.488-2.276.488-.826 0-1.549-.133-2.168-.4a4.339 4.339 0 0 1-1.552-1.133 4.987 4.987 0 0 1-.928-1.709 7.122 7.122 0 0 1-.303-2.119v-.225c0-.761.101-1.468.303-2.119a4.87 4.87 0 0 1 .928-1.709 4.209 4.209 0 0 1 1.543-1.133c.618-.273 1.338-.41 2.158-.41.879 0 1.654.166 2.324.498a3.759 3.759 0 0 1 1.592 1.446c.384.631.573 1.396.566 2.295H27.93a2.13 2.13 0 0 0-.147-.86 1.317 1.317 0 0 0-.488-.605c-.215-.157-.492-.235-.83-.235-.339 0-.612.075-.82.225-.209.15-.368.358-.479.625-.104.26-.176.56-.215.898-.032.339-.049.7-.049 1.084v.225c0 .39.017.758.05 1.104.038.338.113.637.224.898.11.254.27.456.478.605.209.144.485.215.83.215Zm5.537-2.832V9.62c0-.775.11-1.487.331-2.139a4.866 4.866 0 0 1 .977-1.709c.43-.481.96-.856 1.592-1.123.631-.273 1.36-.41 2.187-.41.834 0 1.566.137 2.198.41a4.37 4.37 0 0 1 1.601 1.123c.43.482.755 1.052.977 1.71.221.65.332 1.363.332 2.138v.205c0 .768-.11 1.481-.332 2.139a4.985 4.985 0 0 1-.977 1.709c-.43.482-.96.856-1.592 1.123-.631.267-1.36.4-2.187.4-.827 0-1.56-.133-2.197-.4a4.37 4.37 0 0 1-1.602-1.123 4.985 4.985 0 0 1-.977-1.71 6.666 6.666 0 0 1-.331-2.138Zm3.29-.205v.205c0 .397.03.768.088 1.114.059.345.157.647.293.908.137.254.323.452.557.595.234.144.527.215.879.215.345 0 .631-.071.86-.215.234-.143.42-.341.556-.595.137-.26.234-.563.293-.909.059-.345.088-.716.088-1.113V9.62c0-.384-.03-.745-.088-1.084a3.039 3.039 0 0 0-.293-.908 1.575 1.575 0 0 0-.557-.625c-.234-.15-.527-.225-.879-.225-.345 0-.634.075-.869.225-.228.15-.41.358-.547.625-.136.26-.234.563-.293.908-.058.339-.087.7-.087 1.084ZM47.159 0v15h-3.3V0h3.3Zm5.254 0v15h-3.29V0h3.29Zm-.39 9.355-.772.02c0-.742.091-1.426.273-2.05a5.193 5.193 0 0 1 .782-1.632c.338-.462.745-.82 1.22-1.074a3.304 3.304 0 0 1 1.582-.38c.521 0 .996.074 1.426.224.436.15.81.39 1.123.723.32.332.563.765.733 1.298.175.534.263 1.185.263 1.954V15h-3.31V8.418c0-.43-.062-.762-.186-.996a.97.97 0 0 0-.508-.498 2.004 2.004 0 0 0-.81-.147c-.384 0-.697.065-.938.196-.24.13-.426.312-.556.547a2.422 2.422 0 0 0-.254.81 7.14 7.14 0 0 0-.069 1.025Zm13.945 2.989V7.988c0-.3-.043-.556-.127-.771a1.017 1.017 0 0 0-.4-.498c-.183-.124-.427-.186-.733-.186-.247 0-.459.043-.635.127a.873.873 0 0 0-.4.381c-.091.17-.137.384-.137.645h-3.29c0-.489.107-.941.321-1.358.222-.423.534-.79.938-1.103.41-.313.898-.554 1.465-.723a6.51 6.51 0 0 1 1.914-.264c.84 0 1.588.14 2.246.42.664.28 1.188.7 1.572 1.26.384.553.576 1.25.576 2.09v4.326c0 .69.04 1.214.117 1.572.079.352.19.661.333.928V15h-3.301a4.452 4.452 0 0 1-.352-1.191 9.821 9.821 0 0 1-.107-1.465Zm.4-3.8.02 1.759h-1.455c-.306 0-.567.042-.782.127a1.315 1.315 0 0 0-.507.351 1.39 1.39 0 0 0-.274.489 2.091 2.091 0 0 0-.078.576c0 .195.046.37.137.527.097.15.228.267.39.352.163.084.345.127.547.127.365 0 .674-.069.928-.206.26-.143.459-.315.596-.517.136-.202.205-.39.205-.566l.722 1.347c-.13.26-.28.524-.449.791a3.46 3.46 0 0 1-.615.742c-.24.222-.537.404-.889.547-.351.137-.778.205-1.279.205-.651 0-1.25-.133-1.797-.4a3.328 3.328 0 0 1-1.299-1.113 2.895 2.895 0 0 1-.488-1.66c0-.547.098-1.036.293-1.465a2.87 2.87 0 0 1 .908-1.094c.404-.3.918-.527 1.543-.684.625-.156 1.36-.234 2.207-.234h1.416Zm15.254 3.487a.657.657 0 0 0-.185-.469c-.118-.136-.326-.26-.626-.37-.299-.118-.719-.235-1.26-.352-.513-.11-.999-.257-1.454-.44a5.024 5.024 0 0 1-1.182-.664 2.938 2.938 0 0 1-.8-.927 2.599 2.599 0 0 1-.284-1.23c0-.45.094-.873.283-1.27.196-.404.479-.759.85-1.065a4.144 4.144 0 0 1 1.377-.732c.54-.183 1.155-.274 1.846-.274.95 0 1.77.147 2.46.44.69.286 1.221.69 1.592 1.21.378.515.567 1.11.567 1.788h-3.291c0-.267-.046-.495-.137-.684a.87.87 0 0 0-.42-.43c-.195-.104-.456-.156-.781-.156a1.51 1.51 0 0 0-.625.127 1.122 1.122 0 0 0-.44.352.863.863 0 0 0-.166.527.79.79 0 0 0 .098.39c.072.111.179.216.322.313.144.091.326.176.547.254.221.072.488.137.8.195.71.13 1.375.316 1.993.557.619.241 1.12.583 1.504 1.025.39.443.586 1.039.586 1.788 0 .468-.108.901-.322 1.298-.215.391-.524.736-.928 1.036-.404.292-.889.52-1.455.683a6.932 6.932 0 0 1-1.914.244c-1.01 0-1.862-.179-2.559-.537-.696-.364-1.224-.82-1.582-1.367-.351-.553-.527-1.113-.527-1.68h3.066c.013.326.091.593.235.801.15.208.348.361.595.46.248.097.534.146.86.146.3 0 .547-.043.742-.127.202-.085.355-.199.459-.342a.884.884 0 0 0 .156-.518Zm10.889.4V4.435h3.3V15h-3.085l-.215-2.568Zm.312-2.148.86-.02c0 .71-.085 1.368-.254 1.973a4.71 4.71 0 0 1-.752 1.563 3.43 3.43 0 0 1-1.211 1.035c-.475.24-1.026.361-1.65.361-.521 0-1-.071-1.436-.215-.43-.15-.8-.38-1.113-.693-.313-.319-.557-.726-.733-1.22-.17-.502-.254-1.1-.254-1.797V4.434h3.291v6.855c0 .234.03.436.088.606.059.169.143.312.254.43.11.11.247.195.41.253.17.052.362.078.576.078.495 0 .883-.104 1.163-.312.28-.209.475-.492.585-.85.118-.358.176-.762.176-1.21Zm10.293 2.06V7.989c0-.3-.042-.556-.127-.771a1.014 1.014 0 0 0-.4-.498c-.182-.124-.427-.186-.733-.186-.247 0-.459.043-.634.127a.873.873 0 0 0-.401.381c-.091.17-.136.384-.136.645h-3.291c0-.489.107-.941.322-1.358.221-.423.534-.79.937-1.103.41-.313.899-.554 1.465-.723a6.51 6.51 0 0 1 1.914-.264c.84 0 1.589.14 2.246.42.664.28 1.188.7 1.573 1.26.384.553.576 1.25.576 2.09v4.326c0 .69.039 1.214.117 1.572.078.352.189.661.332.928V15h-3.301a4.46 4.46 0 0 1-.351-1.191 9.768 9.768 0 0 1-.108-1.465Zm.401-3.798.019 1.758h-1.455c-.306 0-.566.042-.781.127a1.309 1.309 0 0 0-.781.84 2.054 2.054 0 0 0-.079.576c0 .195.046.37.137.527.098.15.228.267.391.352.163.084.345.127.547.127.364 0 .674-.069.927-.206.261-.143.459-.315.596-.517.137-.202.205-.39.205-.566l.723 1.347c-.13.26-.28.524-.449.791a3.45 3.45 0 0 1-.616.742c-.24.222-.537.404-.888.547-.352.137-.778.205-1.28.205a4.04 4.04 0 0 1-1.796-.4 3.328 3.328 0 0 1-1.3-1.113 2.895 2.895 0 0 1-.488-1.66c0-.547.098-1.036.293-1.465a2.87 2.87 0 0 1 .909-1.094c.403-.3.918-.527 1.543-.684.625-.156 1.36-.234 2.207-.234h1.416ZM119.688.78V15h-3.428V.781h3.428Zm4.277 0v2.647H112.08V.78h11.885Zm1.455 0h5.596c1.093 0 2.044.163 2.851.489.807.325 1.429.807 1.865 1.445.443.638.664 1.426.664 2.363 0 .814-.126 1.494-.38 2.041-.254.547-.609 1-1.065 1.358a5.976 5.976 0 0 1-1.572.869l-1.123.634h-4.697l-.02-2.646h3.477c.436 0 .797-.078 1.084-.234.286-.157.501-.378.644-.664.15-.293.225-.642.225-1.045 0-.41-.075-.762-.225-1.055a1.545 1.545 0 0 0-.664-.674c-.286-.156-.641-.234-1.064-.234h-2.168V15h-3.428V.781ZM133.203 15l-3.144-6.29 3.632-.019 3.184 6.162V15h-3.672ZM142.109.781V15h-3.418V.781h3.418Zm8.213 8.174h-3.662l-.019-2.246h2.968c.534 0 .961-.059 1.28-.176.319-.123.55-.303.693-.537.15-.234.225-.527.225-.879 0-.403-.075-.729-.225-.976-.15-.248-.387-.427-.713-.537-.319-.118-.732-.176-1.24-.176h-1.68V15h-3.428V.781h5.108c.879 0 1.663.082 2.353.244.691.157 1.276.398 1.758.723.489.326.86.736 1.114 1.23.253.489.38 1.065.38 1.729 0 .58-.123 1.123-.371 1.63-.247.509-.661.922-1.24 1.241-.573.313-1.357.475-2.353.488l-.948.89ZM150.186 15h-4.356l1.172-2.637h3.184c.468 0 .843-.071 1.123-.215.286-.15.491-.345.615-.585.13-.248.195-.521.195-.82 0-.365-.062-.681-.185-.948a1.27 1.27 0 0 0-.567-.615c-.26-.15-.609-.225-1.045-.225h-2.881l.02-2.246h3.447l.801.898c.951-.039 1.702.095 2.256.4.56.307.96.71 1.201 1.212.241.501.361 1.025.361 1.572 0 .931-.201 1.709-.605 2.334-.397.625-.993 1.094-1.787 1.406-.795.313-1.778.469-2.949.469Zm19.277-7.393v.577c0 1.087-.153 2.063-.459 2.93-.3.859-.726 1.594-1.279 2.206a5.677 5.677 0 0 1-1.963 1.397c-.755.319-1.589.478-2.5.478-.918 0-1.758-.16-2.52-.478a5.759 5.759 0 0 1-1.972-1.397c-.554-.612-.984-1.347-1.29-2.207-.299-.866-.449-1.842-.449-2.93v-.576c0-1.087.15-2.063.449-2.93.306-.865.733-1.6 1.28-2.206a5.495 5.495 0 0 1 1.963-1.397c.761-.325 1.601-.488 2.519-.488.912 0 1.745.163 2.5.488a5.488 5.488 0 0 1 1.973 1.397c.553.605.983 1.34 1.289 2.207.306.866.459 1.842.459 2.93Zm-3.477.577v-.596a8.32 8.32 0 0 0-.185-1.856c-.117-.54-.293-.992-.528-1.357a2.318 2.318 0 0 0-.869-.82 2.344 2.344 0 0 0-1.162-.284c-.456 0-.853.095-1.191.284a2.27 2.27 0 0 0-.85.82c-.228.365-.4.817-.517 1.357a9.193 9.193 0 0 0-.166 1.856v.596c0 .696.055 1.315.166 1.855.117.534.289.986.517 1.357.235.372.521.651.86.84.345.19.745.284 1.201.284.436 0 .823-.095 1.162-.284.338-.189.622-.468.849-.84.235-.37.411-.823.528-1.357.123-.54.185-1.159.185-1.855Zm15.196 7.011c-.86 0-1.628-.133-2.305-.4a5.022 5.022 0 0 1-1.719-1.123 4.983 4.983 0 0 1-1.064-1.64 5.358 5.358 0 0 1-.362-1.964v-.37c0-.775.108-1.492.323-2.15a5.022 5.022 0 0 1 .957-1.737 4.264 4.264 0 0 1 1.592-1.153c.638-.28 1.38-.42 2.226-.42.749 0 1.419.12 2.012.362.592.24 1.094.586 1.504 1.035.416.449.732.993.947 1.63.221.639.332 1.355.332 2.15v1.337h-8.633v-2.06h5.42v-.255c.007-.351-.055-.65-.185-.898a1.28 1.28 0 0 0-.547-.566c-.241-.13-.534-.196-.879-.196-.358 0-.655.078-.889.235a1.588 1.588 0 0 0-.537.644 3.366 3.366 0 0 0-.264.928 7.61 7.61 0 0 0-.078 1.113v.371c0 .391.052.746.156 1.065.111.319.267.592.469.82.209.222.456.394.742.518.293.123.625.185.996.185.45 0 .892-.084 1.329-.254.436-.169.81-.449 1.123-.84l1.494 1.778c-.215.306-.521.602-.918.889a5.09 5.09 0 0 1-1.406.703 5.983 5.983 0 0 1-1.836.263Zm14.57-2.45 2.08-8.311h3.467L197.842 15h-2.051l-.039-2.256Zm-1.231-8.311 2.051 8.31-.019 2.256h-2.061l-3.447-10.566h3.476Zm12.735 10.761c-.86 0-1.628-.133-2.305-.4a5.022 5.022 0 0 1-1.719-1.123 4.983 4.983 0 0 1-1.064-1.64 5.357 5.357 0 0 1-.361-1.964v-.37c0-.775.107-1.492.322-2.15a5.022 5.022 0 0 1 .957-1.737 4.272 4.272 0 0 1 1.592-1.153c.638-.28 1.38-.42 2.226-.42.749 0 1.42.12 2.012.362.592.24 1.094.586 1.504 1.035.417.449.732.993.947 1.63.222.639.332 1.355.332 2.15v1.337h-8.633v-2.06h5.42v-.255c.007-.351-.055-.65-.185-.898a1.28 1.28 0 0 0-.547-.566c-.241-.13-.534-.196-.879-.196-.358 0-.654.078-.889.235a1.588 1.588 0 0 0-.537.644 3.4 3.4 0 0 0-.263.928 7.47 7.47 0 0 0-.079 1.113v.371c0 .391.053.746.157 1.065.11.319.267.592.468.82.209.222.456.394.743.518.293.123.625.185.996.185.449 0 .892-.084 1.328-.254.436-.169.81-.449 1.123-.84l1.494 1.778c-.215.306-.521.602-.918.889-.391.286-.859.52-1.406.703a5.983 5.983 0 0 1-1.836.263Zm9.101-8.525V15h-3.291V4.434h3.086l.205 2.236Zm-.4 2.685-.752.02c0-.742.088-1.426.264-2.05a4.93 4.93 0 0 1 .781-1.632 3.59 3.59 0 0 1 1.27-1.074c.507-.254 1.093-.38 1.757-.38.463 0 .883.07 1.26.214.378.137.703.355.977.654.273.293.481.678.625 1.153.149.469.224 1.032.224 1.69V15h-3.291V8.37c0-.45-.052-.789-.156-1.016-.098-.228-.241-.381-.43-.46a1.813 1.813 0 0 0-.693-.117 1.53 1.53 0 0 0-.772.196c-.227.13-.423.312-.585.547a2.635 2.635 0 0 0-.362.81 4.23 4.23 0 0 0-.117 1.025Zm6.035 0-.918.02c0-.742.082-1.426.244-2.05.17-.626.42-1.17.752-1.632.339-.462.759-.82 1.26-1.074.501-.254 1.084-.38 1.748-.38.482 0 .925.07 1.328.214.404.143.752.374 1.045.693.293.32.521.743.684 1.27.163.52.244 1.165.244 1.934V15h-3.301V8.35c0-.437-.052-.765-.156-.987-.098-.228-.241-.38-.43-.459a1.637 1.637 0 0 0-.674-.127c-.312 0-.582.065-.81.196-.228.13-.42.312-.576.547-.15.227-.261.498-.332.81a4.567 4.567 0 0 0-.108 1.025Zm16.572-2.89v12.598h-3.291V4.432h3.067l.224 2.032Zm6.485 3.125v.205a8.25 8.25 0 0 1-.264 2.139 5.342 5.342 0 0 1-.781 1.718c-.345.489-.775.87-1.289 1.143-.508.267-1.097.4-1.768.4-.631 0-1.175-.14-1.631-.42a3.492 3.492 0 0 1-1.142-1.162 6.95 6.95 0 0 1-.742-1.699 15.606 15.606 0 0 1-.45-2.021v-.264c.111-.762.261-1.468.45-2.12a6.68 6.68 0 0 1 .742-1.718 3.45 3.45 0 0 1 1.133-1.143c.455-.273.999-.41 1.631-.41.67 0 1.259.127 1.767.381.514.254.944.619 1.289 1.094.352.469.615 1.032.791 1.69.176.657.264 1.386.264 2.187Zm-3.291.205V9.59c0-.41-.029-.785-.088-1.123a3.12 3.12 0 0 0-.283-.899 1.434 1.434 0 0 0-.498-.586c-.209-.136-.466-.205-.772-.205-.351 0-.648.056-.888.166a1.282 1.282 0 0 0-.567.489 2.242 2.242 0 0 0-.293.81 6.414 6.414 0 0 0-.068 1.123v.801c-.013.495.036.931.146 1.309.111.37.303.66.576.869.274.208.645.312 1.114.312.312 0 .573-.071.781-.215.208-.15.374-.354.498-.615.124-.267.212-.573.264-.918a7.48 7.48 0 0 0 .078-1.113Zm10.244 2.549V7.988c0-.3-.042-.556-.127-.771a1.02 1.02 0 0 0-.4-.498c-.183-.124-.427-.186-.733-.186-.247 0-.459.043-.635.127a.875.875 0 0 0-.4.381c-.091.17-.137.384-.137.645h-3.291c0-.489.108-.941.323-1.358.221-.423.533-.79.937-1.103.41-.313.899-.554 1.465-.723a6.51 6.51 0 0 1 1.914-.264c.84 0 1.589.14 2.246.42.664.28 1.188.7 1.572 1.26.384.553.576 1.25.576 2.09v4.326c0 .69.04 1.214.118 1.572.078.352.188.661.332.928V15h-3.301a4.496 4.496 0 0 1-.352-1.191 9.902 9.902 0 0 1-.107-1.465Zm.4-3.8.02 1.759h-1.455c-.306 0-.567.042-.781.127a1.309 1.309 0 0 0-.782.84 2.091 2.091 0 0 0-.078.576c0 .195.046.37.137.527.098.15.228.267.391.352.162.084.345.127.546.127.365 0 .674-.069.928-.206.261-.143.459-.315.596-.517.137-.202.205-.39.205-.566l.723 1.347c-.131.26-.28.524-.45.791a3.415 3.415 0 0 1-.615.742 2.931 2.931 0 0 1-.889.547c-.351.137-.778.205-1.279.205-.651 0-1.25-.133-1.797-.4a3.335 3.335 0 0 1-1.299-1.113 2.898 2.898 0 0 1-.488-1.66c0-.547.098-1.036.293-1.465.202-.43.505-.795.908-1.094.404-.3.918-.527 1.543-.684.625-.156 1.361-.234 2.207-.234h1.416Zm8.057-1.493V15h-3.291V4.434h3.076l.215 2.617Zm3.125-2.696-.059 3.057a47.98 47.98 0 0 0-.527-.049 6.516 6.516 0 0 0-.557-.029 3.23 3.23 0 0 0-.996.137 1.682 1.682 0 0 0-.683.39c-.176.17-.306.384-.391.645-.078.26-.114.563-.107.908l-.596-.39c0-.71.068-1.355.205-1.934a5.23 5.23 0 0 1 .606-1.514c.26-.43.576-.758.947-.986a2.292 2.292 0 0 1 1.25-.352c.163 0 .322.01.478.03.163.02.306.048.43.087Zm6.328 7.989V7.988c0-.3-.042-.556-.127-.771a1.014 1.014 0 0 0-.4-.498c-.183-.124-.427-.186-.733-.186-.247 0-.459.043-.634.127a.873.873 0 0 0-.401.381c-.091.17-.137.384-.137.645h-3.291c0-.489.108-.941.323-1.358a3.36 3.36 0 0 1 .937-1.103c.41-.313.899-.554 1.465-.723a6.51 6.51 0 0 1 1.914-.264c.84 0 1.589.14 2.246.42.664.28 1.188.7 1.572 1.26.385.553.577 1.25.577 2.09v4.326c0 .69.039 1.214.117 1.572.078.352.189.661.332.928V15h-3.301a4.46 4.46 0 0 1-.351-1.191 9.768 9.768 0 0 1-.108-1.465Zm.4-3.8.02 1.759h-1.455c-.306 0-.566.042-.781.127a1.309 1.309 0 0 0-.782.84 2.091 2.091 0 0 0-.078.576c0 .195.046.37.137.527.098.15.228.267.391.352.162.084.345.127.547.127.364 0 .673-.069.927-.206.261-.143.459-.315.596-.517.137-.202.205-.39.205-.566l.723 1.347c-.13.26-.28.524-.45.791a3.415 3.415 0 0 1-.615.742 2.938 2.938 0 0 1-.888.547c-.352.137-.778.205-1.28.205-.651 0-1.25-.133-1.797-.4a3.325 3.325 0 0 1-1.298-1.113 2.892 2.892 0 0 1-.489-1.66c0-.547.098-1.036.293-1.465.202-.43.505-.795.908-1.094.404-.3.918-.527 1.543-.684.625-.156 1.361-.234 2.207-.234h1.416Zm9.307 1.28V9.62c0-.775.111-1.487.332-2.139a4.872 4.872 0 0 1 .977-1.709c.429-.481.96-.856 1.592-1.123.631-.273 1.36-.41 2.187-.41.833 0 1.566.137 2.197.41a4.374 4.374 0 0 1 1.602 1.123c.43.482.755 1.052.976 1.71a6.59 6.59 0 0 1 .332 2.138v.205c0 .768-.11 1.481-.332 2.139a4.973 4.973 0 0 1-.976 1.709c-.43.482-.96.856-1.592 1.123-.631.267-1.361.4-2.187.4-.827 0-1.56-.133-2.198-.4a4.363 4.363 0 0 1-1.601-1.123 4.991 4.991 0 0 1-.977-1.71 6.674 6.674 0 0 1-.332-2.138Zm3.291-.205v.205c0 .397.029.768.088 1.114.059.345.156.647.293.908.137.254.322.452.557.595.234.144.527.215.879.215.345 0 .631-.071.859-.215.234-.143.42-.341.557-.595a3.07 3.07 0 0 0 .293-.909c.058-.345.087-.716.087-1.113V9.62a6.42 6.42 0 0 0-.087-1.084 3.07 3.07 0 0 0-.293-.908 1.581 1.581 0 0 0-.557-.625c-.234-.15-.527-.225-.879-.225-.345 0-.635.075-.869.225-.228.15-.41.358-.547.625-.137.26-.234.563-.293.908-.059.339-.088.7-.088 1.084ZM117.539 38h-3.154l.019-2.637h3.135c.651 0 1.201-.156 1.65-.468.456-.313.801-.779 1.036-1.397.24-.625.361-1.393.361-2.305v-.615c0-.683-.068-1.282-.205-1.797-.13-.52-.326-.953-.586-1.299a2.446 2.446 0 0 0-.977-.79c-.384-.176-.826-.264-1.328-.264h-3.164V23.78h3.164c.964 0 1.846.166 2.647.498a5.927 5.927 0 0 1 2.09 1.407 6.236 6.236 0 0 1 1.367 2.158c.325.827.488 1.744.488 2.754v.595c0 1.003-.163 1.92-.488 2.754a6.304 6.304 0 0 1-1.358 2.158 6.122 6.122 0 0 1-2.08 1.407c-.794.325-1.666.488-2.617.488Zm-1.191-14.219V38h-3.428V23.781h3.428Zm17.236 0h3.428v9.287c0 1.107-.231 2.045-.694 2.813a4.401 4.401 0 0 1-1.943 1.728c-.833.391-1.813.586-2.939.586-1.114 0-2.094-.195-2.94-.586a4.516 4.516 0 0 1-1.973-1.728c-.468-.768-.703-1.706-.703-2.813v-9.287h3.438v9.287c0 .586.084 1.065.254 1.436.169.364.416.631.742.8.325.17.719.255 1.182.255.468 0 .862-.085 1.181-.254.319-.17.56-.437.723-.801.163-.371.244-.85.244-1.436v-9.287Zm15.371 11.582V38h-7.578v-2.637h7.578Zm-6.357-11.582V38h-3.428V23.781h3.428Zm5.381 5.645v2.549h-6.602v-2.55h6.602Zm1.005-5.645v2.647h-7.607V23.78h7.607Zm10.772 11.582V38h-7.188v-2.637h7.188Zm-5.967-11.582V38h-3.428V23.781h3.428Zm18.818 6.826v.577c0 1.087-.153 2.063-.459 2.93-.299.859-.725 1.594-1.279 2.206a5.668 5.668 0 0 1-1.963 1.397c-.755.319-1.588.478-2.5.478-.918 0-1.758-.16-2.519-.478a5.772 5.772 0 0 1-1.973-1.397c-.553-.612-.983-1.347-1.289-2.207-.299-.866-.449-1.842-.449-2.93v-.576c0-1.087.15-2.063.449-2.93.306-.865.732-1.6 1.279-2.206a5.512 5.512 0 0 1 1.963-1.397c.762-.325 1.602-.488 2.52-.488.911 0 1.745.163 2.5.488a5.484 5.484 0 0 1 1.972 1.397c.554.605.983 1.34 1.289 2.207.306.866.459 1.842.459 2.93Zm-3.476.577v-.596c0-.703-.062-1.322-.186-1.856-.117-.54-.293-.992-.527-1.357a2.318 2.318 0 0 0-.869-.82 2.347 2.347 0 0 0-1.162-.284c-.456 0-.853.095-1.192.284a2.275 2.275 0 0 0-.849.82c-.228.365-.401.817-.518 1.357a9.194 9.194 0 0 0-.166 1.856v.596c0 .696.055 1.315.166 1.855.117.534.29.986.518 1.358.234.37.521.65.859.84.345.188.746.282 1.201.282.436 0 .824-.094 1.162-.283.339-.188.622-.468.85-.84.234-.37.41-.823.527-1.357a8.34 8.34 0 0 0 .186-1.855Zm4.121 5.273c0-.469.169-.86.508-1.172.338-.319.775-.478 1.308-.478.541 0 .977.16 1.309.478.338.313.508.703.508 1.172s-.17.863-.508 1.182c-.332.312-.768.468-1.309.468-.533 0-.97-.156-1.308-.468a1.558 1.558 0 0 1-.508-1.182Z"/><defs><linearGradient id="a" x1="-16" x2="318.5" y1="15.577" y2="15.577" gradientUnits="userSpaceOnUse"><stop stop-color="#5D2734"/><stop offset=".196" stop-color="#7D3445"/><stop offset=".396" stop-color="#B94955"/><stop offset=".615" stop-color="#199475"/><stop offset=".812" stop-color="#1C4B48"/><stop offset="1" stop-color="#182D30"/></linearGradient></defs></svg>